<?xml version="1.0" encoding="UTF-8"?>
<!DOCTYPE svg PUBLIC "-//W3C//DTD SVG 1.1//EN" "http://www.w3.org/Graphics/SVG/1.1/DTD/svg11.dtd">
<!-- Creator: CorelDRAW -->
<svg xmlns="http://www.w3.org/2000/svg" xml:space="preserve" width="0.352047in" height="0.352047in" version="1.1" style="shape-rendering:geometricPrecision; text-rendering:geometricPrecision; image-rendering:optimizeQuality; fill-rule:evenodd; clip-rule:evenodd"
viewBox="0 0 29.04 29.04"
 xmlns:xlink="http://www.w3.org/1999/xlink"
 xmlns:xodm="http://www.corel.com/coreldraw/odm/2003">
 <defs>
  <style type="text/css">
   <![CDATA[
    .fil0 {fill:#FEFEFE}
    .fil5 {fill:black}
    .fil2 {fill:#0304FE}
    .fil4 {fill:#139946}
    .fil1 {fill:#139A46}
    .fil3 {fill:#FA0001}
   ]]>
  </style>
 </defs>
 <g id="Layer_x0020_1">
  <metadata id="CorelCorpID_0Corel-Layer"/>
  <g id="_1965356725360">
   <circle class="fil0" cx="14.52" cy="14.52" r="14.52"/>
   <g>
    <path class="fil1" d="M1.7 9.02c-0,0.06 -0.19,0.5 -0.23,0.6 -0.01,0.04 -0.02,0.07 -0.04,0.1l-0.24 0.72c-0,0.01 -0.01,0.04 -0.01,0.05l-0.05 0.17c0.5,0 1,0 1.5,0l-0.05 0c0.04,-0.08 0.32,-0.89 0.37,-0.98 0.02,-0.03 0.01,-0.02 0.03,-0.04 0.04,-0.01 0.09,-0.16 0.1,-0.2 0.02,-0.04 0.03,-0.06 0.05,-0.11 0.19,-0.38 0.26,-0.56 0.5,-0.96 0.17,-0.29 0.31,-0.51 0.5,-0.79 0.05,-0.07 0.08,-0.12 0.13,-0.19l0.27 -0.37c0.24,-0.3 0.48,-0.6 0.74,-0.88l0.64 -0.65c0.03,-0.03 0.05,-0.04 0.09,-0.07 0.03,-0.03 0.05,-0.05 0.08,-0.08 0.33,-0.27 0.52,-0.45 0.89,-0.73 0.06,-0.05 0.12,-0.09 0.18,-0.13 0.54,-0.4 1.22,-0.79 1.83,-1.09 0.48,-0.24 1.34,-0.58 1.86,-0.72 0.59,-0.16 0.94,-0.25 1.58,-0.36 0.2,-0.03 0.37,-0.05 0.57,-0.08 0.2,-0.03 0.41,-0.03 0.59,-0.05 0.19,-0.03 0.44,0.01 0.62,-0.02 0.13,-0.02 1.04,0.01 1.24,0.04 0.1,0.01 0.21,0.02 0.3,0.03 0.11,0.01 0.19,0.02 0.3,0.03 1.51,0.2 2.8,0.64 3.95,1.21 0.93,0.47 1.55,0.9 2.34,1.53 0.06,0.05 0.11,0.1 0.17,0.14l0.35 0.31c0.07,0.05 0.11,0.1 0.17,0.16 0.11,0.11 0.21,0.21 0.32,0.32 0.06,0.06 0.1,0.1 0.16,0.16 0.25,0.26 0.68,0.79 0.88,1.06 0.29,0.39 0.41,0.6 0.65,0.97l0.46 0.83c0.18,0.36 0.35,0.73 0.5,1.11 0.03,0.09 0.06,0.15 0.09,0.24 0.06,0.16 0.11,0.32 0.16,0.48 0.06,0.17 0.1,0.33 0.15,0.5l0.19 0.79c0.01,0.03 0.04,0.24 0.06,0.26l0.02 0.03c0.02,0.05 0.02,0.09 0.03,0.14 0.02,0.06 0.04,0.12 0.02,0.17l1.61 0c-0,-0.14 -0.09,-0.54 -0.09,-0.67 0.02,-0.06 -0.02,-0.24 -0.04,-0.3 -0.02,-0.1 -0.04,-0.2 -0.07,-0.3 -0.1,-0.39 -0.18,-0.74 -0.31,-1.13 -0.28,-0.83 -0.47,-1.3 -0.85,-2.05l-0.66 -1.15c-0.18,-0.28 -0.47,-0.7 -0.67,-0.96 -0.03,-0.04 -0.05,-0.07 -0.08,-0.11 -0.29,-0.39 -1.06,-1.25 -1.38,-1.53l-0.28 -0.26c-0.11,-0.11 -0.54,-0.47 -0.68,-0.58 -0.24,-0.19 -0.58,-0.44 -0.83,-0.62 -0.28,-0.18 -0.6,-0.4 -0.89,-0.56 -0.04,-0.02 -0.08,-0.04 -0.12,-0.07 -0.45,-0.26 -1.11,-0.58 -1.59,-0.77 -0.81,-0.32 -1.35,-0.49 -2.21,-0.69 -0.67,-0.16 -1.22,-0.22 -1.9,-0.29l-0.68 -0.04c-0.24,-0 -0.48,0 -0.73,0 -0.25,0 -0.46,0.02 -0.7,0.03l-0.33 0.03c-0.21,0.01 -0.77,0.09 -0.97,0.12 -0.9,0.15 -1.47,0.3 -2.32,0.58 -0.18,0.06 -0.35,0.12 -0.53,0.19 -0.35,0.14 -0.66,0.27 -1.01,0.44 -0.63,0.32 -0.83,0.43 -1.4,0.78 -0.38,0.23 -0.71,0.49 -1.06,0.75l-0.55 0.45c-0.02,0.02 -0.03,0.03 -0.05,0.04l-1.27 1.26c-0.03,0.04 -0.06,0.06 -0.09,0.1l-0.73 0.91c-0.21,0.28 -0.39,0.56 -0.59,0.86l-0.77 1.4 -0.2 0.44c-0.02,0.06 -0.02,0.02 -0.01,0.07z"/>
    <path class="fil1" d="M25.25 20.7c-0.02,0 -0.01,-0.01 -0.04,0.05 -0.02,0.03 -0.02,0.04 -0.04,0.07 -0.03,0.05 -0.05,0.09 -0.08,0.14 -0.06,0.09 -0.11,0.18 -0.16,0.27 -0.06,0.09 -0.11,0.17 -0.17,0.26 -0.33,0.5 -0.57,0.79 -0.95,1.24l-0.42 0.45c-0.09,0.12 -0.72,0.71 -0.9,0.85 -0.08,0.07 -0.15,0.13 -0.24,0.2 -0.2,0.15 -0.42,0.33 -0.62,0.47 -0.28,0.19 -0.49,0.34 -0.8,0.52 -0.5,0.3 -0.79,0.43 -1.3,0.68 -0.19,0.09 -0.74,0.31 -0.94,0.38 -0.11,0.04 -0.21,0.08 -0.32,0.11 -0.25,0.07 -0.41,0.13 -0.67,0.2 -0.11,0.03 -0.24,0.06 -0.36,0.09 -0.7,0.15 -1.59,0.31 -2.31,0.3 -0.09,-0 -0.13,0.01 -0.2,0.01 -0.13,0 -0.58,0.01 -0.67,-0.01l-0.42 -0.02c-0.08,0 -0.12,-0.01 -0.2,-0.01 -0.06,-0 -0.14,-0.01 -0.21,-0.02 -0.26,-0.03 -0.53,-0.06 -0.78,-0.1 -1.02,-0.17 -1.81,-0.4 -2.74,-0.77 -0.53,-0.21 -0.97,-0.45 -1.47,-0.72 -0.1,-0.05 -0.18,-0.11 -0.27,-0.16 -0.35,-0.21 -0.72,-0.46 -1.04,-0.71l-0.45 -0.36c-0.03,-0.02 -0.01,-0.02 -0.04,-0.01 -0.1,-0.02 -0.08,-0.08 -0.13,-0.09l-1.97 0c0.02,0.08 0.04,0.01 0.05,0.11 0,0.06 0.19,0.23 0.24,0.27l0.55 0.52c0.03,0.03 0.04,0.03 0.07,0.06l0.65 0.55c0.06,0.05 0.1,0.08 0.16,0.12 0.73,0.57 1.49,1.02 2.3,1.43l1.13 0.5c0.46,0.19 1.13,0.39 1.62,0.52 0.29,0.07 0.58,0.13 0.88,0.19 0.25,0.05 1.16,0.18 1.42,0.19 0.09,0 0.15,0.01 0.25,0.01 0.06,0 0.05,0.01 0.12,0.01 0.05,0 0.1,-0 0.15,-0 0.37,0.02 0.68,0.01 1.05,0.01 0.1,0 0.15,-0.01 0.25,-0.01 0.1,0 0.15,-0.01 0.25,-0.01l0.98 -0.1c0.17,-0.02 0.3,-0.05 0.47,-0.07 0.69,-0.11 1.08,-0.23 1.72,-0.41 0.77,-0.22 1.56,-0.57 2.27,-0.93 0.24,-0.12 0.46,-0.25 0.69,-0.38 0.37,-0.21 0.97,-0.62 1.29,-0.86 0.05,-0.04 0.09,-0.07 0.15,-0.11 0.11,-0.08 0.63,-0.5 0.73,-0.6 0.03,-0.03 0.04,-0.03 0.07,-0.06l0.48 -0.45c0.1,-0.1 0.25,-0.24 0.33,-0.34 0.02,-0.03 0.04,-0.04 0.06,-0.07l0.39 -0.43c0.51,-0.57 0.83,-1.06 1.24,-1.68l0.47 -0.81c0.02,-0.06 0.02,-0.01 0.01,-0.06 0.01,-0.09 0.07,-0.15 0.1,-0.22 0.03,-0.07 0.06,-0.13 0.1,-0.2 0.07,-0.14 0.02,-0.1 -0.14,-0.1l-1.54 0 -0.11 0.13z"/>
    <path class="fil1" d="M8.7 20.11c0,-0.14 0.25,-1.06 0.28,-1.17 0.09,-0.32 0.28,-0.91 0.41,-1.21l0.17 -0.39c0.22,-0.48 0.62,-1.17 1.05,-1.49 0.07,-0.05 0.14,-0.1 0.22,-0.15 0.11,-0.08 0.42,-0.28 0.55,-0.35l0.87 -0.42c0.65,-0.26 1.26,-0.42 1.94,-0.6 0.08,-0.02 0.21,-0.07 0.3,-0.08l0.01 -0.01 0.01 -0.01 -0.01 0c-0.09,-0.04 -0.18,-0.06 -0.27,-0.09 -1,-0.28 -1.18,-0.33 -2.17,-0.74l-0.74 -0.37c-0.04,-0.02 -0.07,-0.04 -0.11,-0.06 -0.04,-0.02 -0.08,-0.04 -0.12,-0.07l-0.47 -0.28c-0,-0 -0.01,-0 -0.01,-0.01 -0.3,-0.22 -0.61,-0.66 -0.8,-1 -0.25,-0.46 -0.5,-1.02 -0.67,-1.52 -0.09,-0.26 -0.46,-1.48 -0.46,-1.74 -0.04,0.03 -0.08,0.21 -0.1,0.26 -0.02,0.09 -0.05,0.19 -0.08,0.28 -0.03,0.09 -0.05,0.18 -0.08,0.28l-0.42 1.41c-0.09,0.22 -0.16,0.44 -0.27,0.64l-0.49 0.79c-0.27,0.37 -0.34,0.44 -0.73,0.74 -0.53,0.4 -1.37,0.72 -1.97,0.94 -0.18,0.07 -0.36,0.12 -0.56,0.18l-1.13 0.36c0.07,0 0.47,0.13 0.57,0.16 0.35,0.1 0.78,0.22 1.11,0.34l0.81 0.29c0.08,0.03 0.18,0.07 0.26,0.11 0.21,0.1 0.26,0.12 0.49,0.25 0.33,0.2 0.55,0.36 0.83,0.63 0.04,0.04 0.05,0.05 0.08,0.09 0.21,0.25 0.21,0.25 0.4,0.51 0.06,0.08 0.09,0.15 0.14,0.22 0.27,0.41 0.51,1.07 0.66,1.53 0.09,0.28 0.24,0.85 0.32,1.15 0.02,0.06 0.12,0.52 0.17,0.57z"/>
    <path class="fil2" d="M8.7 20.11c0.02,0.05 -0.01,0.01 0.12,0.05 0.99,0.3 2.25,0.61 3.09,1.11 0.4,0.24 0.39,0.25 0.74,0.54 0.07,0.06 0.11,0.12 0.17,0.18 0.03,0.03 0.05,0.06 0.09,0.1 0.48,0.53 0.93,1.48 1.12,2.17 0.03,0.1 0.06,0.18 0.08,0.28l0.39 1.44c0.2,-0.86 0.31,-1.4 0.65,-2.26 0.26,-0.65 0.59,-1.33 1.09,-1.84 0.07,-0.07 0.11,-0.11 0.19,-0.17 0.54,-0.39 1,-0.66 1.64,-0.91 0.3,-0.12 0.52,-0.18 0.81,-0.28 0.28,-0.09 0.57,-0.16 0.85,-0.24 0.1,-0.03 0.2,-0.05 0.29,-0.08l0.29 -0.08c-0.05,-0.03 -0.22,-0.08 -0.27,-0.09l-0.58 -0.16c-0.09,-0.03 -0.18,-0.06 -0.28,-0.09l-0.81 -0.28c-0.09,-0.04 -0.18,-0.07 -0.26,-0.11l-0.74 -0.35c-0.04,-0.03 -0.08,-0.04 -0.12,-0.06 -0.05,-0.02 -0.07,-0.04 -0.12,-0.07 -0.16,-0.09 -0.3,-0.17 -0.46,-0.26 -0.21,-0.12 -0.26,-0.15 -0.42,-0.31 -0.25,-0.25 -0.46,-0.53 -0.62,-0.84 -0.39,-0.72 -0.59,-1.27 -0.85,-2.08 -0.06,-0.2 -0.27,-0.99 -0.29,-1.17l-0.01 0.01c-0.05,0.11 -0.13,0.43 -0.17,0.56 -0.41,1.41 -0.46,1.98 -1.32,3.21 -0.28,0.39 -0.68,0.67 -1.1,0.9 -0.31,0.17 -0.89,0.44 -1.25,0.57 -0.09,0.03 -0.19,0.06 -0.27,0.1 -0.25,0.1 -1.08,0.35 -1.39,0.43 -0.1,0.03 -0.19,0.06 -0.29,0.08z"/>
    <path class="fil3" d="M14.5 14.24l0.01 0 0.13 -0.6c0.16,-0.62 0.37,-1.36 0.63,-1.92 0.04,-0.09 0.07,-0.17 0.11,-0.25l0.25 -0.48c0.09,-0.18 0.31,-0.49 0.44,-0.65 0.19,-0.22 0.34,-0.35 0.58,-0.51 0.99,-0.66 1.48,-0.8 2.52,-1.13 0.19,-0.06 0.38,-0.1 0.57,-0.16l0.43 -0.12c0.05,-0.01 0.1,-0.03 0.14,-0.04l-0.05 -0.03c-0.19,-0.07 -0.84,-0.24 -1.07,-0.31l-0.54 -0.18c-0.09,-0.04 -0.18,-0.06 -0.27,-0.1l-0.38 -0.16c-0.4,-0.16 -1.21,-0.6 -1.55,-0.83 -0.09,-0.06 -0.13,-0.1 -0.2,-0.17 -0.06,-0.06 -0.12,-0.11 -0.17,-0.18 -0.16,-0.21 -0.32,-0.42 -0.45,-0.66 -0.45,-0.83 -0.65,-1.42 -0.92,-2.36 -0.04,-0.14 -0.2,-0.78 -0.21,-0.9l-0.09 0.27c-0.14,0.43 -0.27,1.02 -0.4,1.42 -0.21,0.63 -0.25,0.89 -0.64,1.55 -0.09,0.14 -0.18,0.3 -0.29,0.44 -0.03,0.04 -0.05,0.07 -0.08,0.11 -0.28,0.39 -0.67,0.68 -1.09,0.91 -0.32,0.18 -0.64,0.33 -0.99,0.47 -0.09,0.03 -0.17,0.07 -0.26,0.1 -0.48,0.17 -0.88,0.31 -1.38,0.45l-0.57 0.19c0.08,0 0.2,0.05 0.28,0.07 0.99,0.28 2.34,0.66 3.15,1.2 0.22,0.15 0.32,0.24 0.52,0.4 0.07,0.06 0.11,0.12 0.17,0.18 0.28,0.27 0.62,0.86 0.8,1.21 0.08,0.17 0.15,0.34 0.22,0.52 0.15,0.37 0.24,0.73 0.35,1.1 0.03,0.09 0.05,0.18 0.08,0.28 0.03,0.11 0.05,0.19 0.08,0.29 0.03,0.11 0.05,0.19 0.08,0.29l0.08 0.3z"/>
    <path class="fil4" d="M4.39 24.11c-0.02,-0.09 -0.03,-0.03 -0.05,-0.11l1.97 0c0.04,0.02 0.03,0.07 0.13,0.09 -0.03,-0.08 -0.25,-0.24 -0.33,-0.31l-0.55 -0.53c-0.03,-0.03 -0.04,-0.05 -0.07,-0.09 -0.1,-0.11 -0.2,-0.2 -0.3,-0.32 -0.67,-0.76 -1.34,-1.68 -1.78,-2.57 -0.07,-0.14 -0.14,-0.27 -0.21,-0.41l-0.19 -0.43c-0.56,-1.34 -0.86,-2.53 -0.97,-4 -0.01,-0.07 -0.01,-0.21 -0.02,-0.28 -0.01,-0.1 0.01,-0.21 -0.01,-0.31 -0.02,-0.16 -0.03,-0.43 -0,-0.6l0.08 -1.17c0.13,-1.13 0.41,-2.18 0.82,-3.22 0.03,-0.07 0.08,-0.17 0.09,-0.24 -0.02,0.02 -0.02,0.01 -0.03,0.04 -0.06,0.09 -0.34,0.9 -0.37,0.98l0.05 0c-0.5,0 -1,0 -1.5,0l0.05 -0.17c0,-0.01 0.01,-0.04 0.01,-0.05l0.24 -0.72c0.01,-0.03 0.02,-0.06 0.04,-0.1 0.04,-0.1 0.22,-0.53 0.23,-0.6 -0.05,0.03 -0.03,0.01 -0.06,0.1 -0.02,0.04 -0.03,0.07 -0.05,0.11 -0.2,0.51 -0.42,1.11 -0.56,1.64 -0.15,0.62 -0.22,0.92 -0.33,1.55 -0.06,0.35 -0.1,0.77 -0.13,1.12l-0.01 0.3c0,0.11 -0.01,0.18 -0.01,0.3 0,0.4 -0.02,0.86 0.02,1.23l0.04 0.58c0.02,0.35 0.2,1.35 0.27,1.63 0.2,0.83 0.3,1.15 0.58,1.92 0.13,0.37 0.52,1.23 0.74,1.61 0.19,0.32 0.3,0.56 0.52,0.89 0.17,0.26 0.31,0.49 0.51,0.75l0.91 1.13c0.03,0.03 0.05,0.05 0.08,0.08 0.04,0.05 0.11,0.13 0.17,0.16z"/>
    <path class="fil4" d="M26.66 12.3c0,0.1 0.02,0.2 0.04,0.29 0.07,0.43 0.16,1.31 0.16,1.74 -0,0.11 -0,0.22 -0,0.33 0,0.28 -0.03,0.9 -0.07,1.2 -0.04,0.38 -0.1,0.76 -0.17,1.11 -0.16,0.83 -0.43,1.69 -0.75,2.43l-0.36 0.76c-0.02,0.04 -0.03,0.07 -0.05,0.11 -0.04,0.08 -0.21,0.37 -0.22,0.44l0.11 -0.13 1.54 0c0.15,0 0.21,-0.04 0.14,0.1 -0.04,0.07 -0.07,0.13 -0.1,0.2 -0.04,0.07 -0.09,0.14 -0.1,0.22 0.05,-0.02 0.03,0 0.08,-0.11l0.39 -0.81c0.44,-0.94 0.78,-2.15 0.97,-3.16 0.19,-1.01 0.22,-1.77 0.22,-2.88l-0.09 -1.28 -0.12 -0.83c-0.01,-0.07 -0.02,-0.06 -0.04,-0.07 0,0.13 0.09,0.53 0.09,0.67l-1.61 0c0.02,-0.06 -0,-0.11 -0.02,-0.17 -0.01,-0.05 -0,-0.09 -0.03,-0.14l-0.02 -0.03z"/>
    <path class="fil5" d="M15.79 14.1c0,0.44 -0.01,0.56 0.13,0.99 0.21,0.64 0.73,1.04 1.42,1.04 0.37,0 0.64,-0.01 0.96,-0.23 0.15,-0.1 0.23,-0.17 0.34,-0.31 0.12,-0.15 0.3,-0.51 0.3,-0.67 -0.1,-0 -0.37,-0.1 -0.47,-0.11 -0.08,0.35 -0.27,0.68 -0.62,0.81 -0.43,0.16 -1.01,0.06 -1.29,-0.33 -0.09,-0.13 -0.16,-0.26 -0.2,-0.44 -0.22,-0.88 0.01,-1.99 1.11,-1.99 0.11,0 0.27,0.03 0.36,0.06 0.1,0.04 0.2,0.09 0.27,0.15 0.26,0.26 0.21,0.3 0.32,0.52 0.11,-0.01 0.36,-0.1 0.47,-0.11 -0.07,-0.15 -0.03,-0.17 -0.18,-0.41 -0.07,-0.11 -0.17,-0.24 -0.27,-0.32 -0.64,-0.54 -1.85,-0.41 -2.37,0.39 -0.16,0.25 -0.28,0.63 -0.28,0.95z"/>
    <path class="fil5" d="M23.08 15.79c-0.57,0 -0.65,-0.53 -0.35,-0.72 0.13,-0.09 0.38,-0.11 0.57,-0.14 0.11,-0.02 0.2,-0.04 0.3,-0.06l0.29 -0.08c0,0.46 -0.04,0.74 -0.43,0.92 -0.09,0.04 -0.25,0.08 -0.38,0.08zm-0.92 -1.57l0.43 0.05c0.08,-0.17 0.09,-0.38 0.41,-0.44 0.28,-0.06 0.78,-0.05 0.86,0.31 0.02,0.1 0.02,0.18 0.02,0.3 -0.05,0 -0.09,0.03 -0.13,0.04 -0.53,0.15 -1.36,0.04 -1.61,0.63 -0.21,0.49 0.13,1.03 0.76,1.03 0.27,0 0.4,-0.01 0.65,-0.12 0.16,-0.07 0.31,-0.21 0.38,-0.25 0,0.1 0.04,0.25 0.08,0.32l0.46 0c-0.02,-0.1 -0.08,-0.13 -0.11,-0.34 -0.04,-0.29 -0.03,-1.04 -0.03,-1.36 0,-0.34 -0.02,-0.55 -0.2,-0.72 -0.22,-0.22 -0.59,-0.23 -0.91,-0.23 -0.28,0 -0.55,0.09 -0.72,0.2 -0.19,0.13 -0.29,0.33 -0.35,0.59z"/>
    <path class="fil5" d="M20.52 15.77c-0.12,0 -0.26,-0.04 -0.35,-0.09 -0.09,-0.05 -0.18,-0.13 -0.23,-0.2 -0.25,-0.35 -0.24,-1.1 -0,-1.4 0.5,-0.62 1.56,-0.23 1.29,1.07 -0.06,0.28 -0.24,0.51 -0.52,0.59 -0.04,0.01 -0.15,0.03 -0.19,0.03zm-1.23 -1c0,0.4 0.09,0.75 0.35,1.03 0.03,0.03 0.05,0.04 0.09,0.07 0.16,0.14 0.45,0.25 0.68,0.25 0.27,0 0.43,-0.01 0.68,-0.13 0.28,-0.14 0.47,-0.37 0.56,-0.67 0.03,-0.08 0.04,-0.16 0.05,-0.26 0.01,-0.09 0.01,-0.2 0.02,-0.3 0.01,-0.15 -0.03,-0.42 -0.07,-0.53 -0.14,-0.47 -0.58,-0.8 -1.07,-0.8 -0.46,0 -0.6,0.06 -0.92,0.31 -0.06,0.04 -0.16,0.19 -0.2,0.26 -0.12,0.24 -0.18,0.47 -0.18,0.77z"/>
    <polygon class="fil5" points="25,16.08 25.45,16.08 25.45,12.51 25,12.51 "/>
   </g>
  </g>
 </g>
</svg>
