<?xml version="1.0" encoding="UTF-8"?>
<!DOCTYPE svg PUBLIC "-//W3C//DTD SVG 1.1//EN" "http://www.w3.org/Graphics/SVG/1.1/DTD/svg11.dtd">
<!-- Creator: CorelDRAW -->
<svg xmlns="http://www.w3.org/2000/svg" xml:space="preserve" width="0.475898in" height="0.475898in" version="1.1" style="shape-rendering:geometricPrecision; text-rendering:geometricPrecision; image-rendering:optimizeQuality; fill-rule:evenodd; clip-rule:evenodd"
viewBox="0 0 110.08 110.08"
 xmlns:xlink="http://www.w3.org/1999/xlink"
 xmlns:xodm="http://www.corel.com/coreldraw/odm/2003">
 <defs>
  <style type="text/css">
   <![CDATA[
    .fil0 {fill:#FEFEFE}
    .fil5 {fill:black}
    .fil2 {fill:#0304FE}
    .fil4 {fill:#139946}
    .fil1 {fill:#139A46}
    .fil3 {fill:#FA0001}
   ]]>
  </style>
 </defs>
 <g id="Layer_x0020_1">
  <metadata id="CorelCorpID_0Corel-Layer"/>
  <g id="_1966228452256">
   <circle class="fil0" cx="55.04" cy="55.04" r="55.04"/>
   <g>
    <path class="fil1" d="M6.45 34.17c-0.02,0.24 -0.72,1.9 -0.86,2.26 -0.06,0.14 -0.09,0.25 -0.14,0.37l-0.92 2.72c-0.01,0.05 -0.04,0.16 -0.05,0.2l-0.17 0.65c1.9,0 3.8,0 5.69,0l-0.2 0c0.15,-0.3 1.19,-3.39 1.42,-3.71 0.07,-0.1 0.04,-0.06 0.13,-0.13 0.15,-0.05 0.33,-0.6 0.39,-0.76 0.07,-0.17 0.11,-0.25 0.19,-0.41 0.72,-1.43 0.98,-2.1 1.89,-3.65 0.65,-1.1 1.16,-1.95 1.89,-3 0.18,-0.26 0.31,-0.47 0.49,-0.71l1.03 -1.41c0.91,-1.13 1.81,-2.28 2.82,-3.32l2.42 -2.47c0.13,-0.12 0.19,-0.14 0.33,-0.27 0.11,-0.11 0.19,-0.2 0.3,-0.3 1.25,-1.04 1.97,-1.72 3.37,-2.77 0.24,-0.18 0.45,-0.32 0.69,-0.51 2.03,-1.53 4.64,-2.99 6.94,-4.15 1.82,-0.92 5.06,-2.19 7.05,-2.74 2.23,-0.62 3.56,-0.96 5.98,-1.37 0.77,-0.13 1.39,-0.2 2.15,-0.3 0.74,-0.1 1.54,-0.11 2.24,-0.21 0.73,-0.1 1.65,0.02 2.36,-0.08 0.5,-0.08 3.95,0.04 4.69,0.15 0.38,0.06 0.81,0.06 1.14,0.11 0.41,0.05 0.71,0.08 1.12,0.13 5.73,0.75 10.62,2.42 14.98,4.6 3.53,1.77 5.88,3.42 8.89,5.8 0.24,0.19 0.41,0.36 0.65,0.55l1.31 1.18c0.26,0.2 0.41,0.37 0.64,0.6 0.42,0.42 0.8,0.8 1.22,1.22 0.21,0.21 0.39,0.38 0.6,0.6 0.95,0.99 2.57,2.99 3.33,4.01 1.1,1.47 1.55,2.26 2.48,3.66l1.75 3.14c0.69,1.38 1.34,2.76 1.89,4.2 0.12,0.32 0.23,0.59 0.34,0.91 0.21,0.62 0.42,1.22 0.62,1.82 0.21,0.63 0.37,1.24 0.56,1.89l0.71 2.98c0.02,0.12 0.14,0.92 0.23,0.97l0.09 0.13c0.09,0.18 0.06,0.33 0.1,0.51 0.06,0.24 0.14,0.44 0.06,0.66l6.1 0c-0.01,-0.54 -0.35,-2.05 -0.35,-2.55 0.09,-0.24 -0.09,-0.9 -0.15,-1.15 -0.08,-0.38 -0.16,-0.77 -0.25,-1.14 -0.37,-1.5 -0.7,-2.81 -1.19,-4.3 -1.04,-3.13 -1.8,-4.93 -3.22,-7.77l-2.49 -4.35c-0.67,-1.07 -1.76,-2.67 -2.54,-3.65 -0.11,-0.13 -0.2,-0.26 -0.3,-0.4 -1.1,-1.47 -4.03,-4.76 -5.23,-5.81l-1.07 -0.97c-0.42,-0.43 -2.05,-1.77 -2.59,-2.2 -0.93,-0.74 -2.18,-1.68 -3.16,-2.33 -1.04,-0.69 -2.29,-1.53 -3.38,-2.12 -0.15,-0.08 -0.3,-0.16 -0.45,-0.25 -1.72,-0.99 -4.21,-2.19 -6.02,-2.91 -3.07,-1.23 -5.12,-1.85 -8.37,-2.61 -2.53,-0.59 -4.62,-0.83 -7.19,-1.1l-2.59 -0.16c-0.91,-0.01 -1.84,0 -2.75,0 -0.95,0 -1.75,0.08 -2.65,0.1l-1.25 0.1c-0.8,0.04 -2.93,0.35 -3.68,0.47 -3.42,0.57 -5.55,1.13 -8.78,2.21 -0.69,0.23 -1.34,0.47 -2.01,0.74 -1.33,0.53 -2.52,1.03 -3.82,1.68 -2.4,1.2 -3.14,1.65 -5.32,2.97 -1.43,0.87 -2.7,1.84 -4.02,2.82l-2.09 1.71c-0.08,0.07 -0.1,0.1 -0.18,0.17l-4.82 4.77c-0.11,0.14 -0.22,0.21 -0.34,0.36l-2.75 3.44c-0.81,1.07 -1.49,2.12 -2.23,3.26l-2.93 5.31 -0.77 1.68c-0.09,0.22 -0.09,0.07 -0.03,0.27z"/>
    <path class="fil1" d="M95.7 78.46c-0.06,0 -0.04,-0.06 -0.17,0.18 -0.07,0.12 -0.08,0.14 -0.15,0.25 -0.12,0.2 -0.2,0.34 -0.32,0.53 -0.21,0.36 -0.4,0.68 -0.62,1.02 -0.22,0.34 -0.43,0.64 -0.66,0.99 -1.25,1.88 -2.16,2.99 -3.59,4.7l-1.58 1.71c-0.35,0.45 -2.74,2.68 -3.42,3.22 -0.32,0.25 -0.58,0.5 -0.9,0.75 -0.74,0.58 -1.58,1.26 -2.36,1.79 -1.06,0.7 -1.87,1.29 -3.02,1.98 -1.88,1.13 -2.99,1.64 -4.92,2.57 -0.72,0.35 -2.8,1.17 -3.57,1.42 -0.42,0.14 -0.78,0.29 -1.22,0.42 -0.94,0.28 -1.56,0.5 -2.56,0.74 -0.43,0.11 -0.92,0.24 -1.36,0.34 -2.65,0.55 -6.02,1.17 -8.74,1.15 -0.33,-0 -0.47,0.04 -0.75,0.05 -0.5,0.01 -2.18,0.02 -2.52,-0.03l-1.58 -0.07c-0.3,0 -0.45,-0.05 -0.75,-0.05 -0.22,-0 -0.54,-0.03 -0.78,-0.06 -0.98,-0.12 -2.02,-0.22 -2.97,-0.38 -3.85,-0.64 -6.85,-1.51 -10.37,-2.91 -2.02,-0.81 -3.68,-1.69 -5.57,-2.72 -0.37,-0.2 -0.69,-0.41 -1.03,-0.61 -1.31,-0.78 -2.72,-1.76 -3.96,-2.68l-1.72 -1.38c-0.11,-0.07 -0.02,-0.07 -0.16,-0.03 -0.37,-0.07 -0.31,-0.29 -0.47,-0.35l-7.47 0c0.07,0.29 0.13,0.05 0.2,0.4 0.01,0.24 0.74,0.86 0.91,1.04l2.07 1.97c0.12,0.11 0.16,0.12 0.28,0.22l2.47 2.07c0.21,0.17 0.38,0.29 0.59,0.46 2.75,2.15 5.63,3.85 8.73,5.4l4.26 1.88c1.76,0.7 4.26,1.49 6.14,1.95 1.11,0.28 2.2,0.5 3.33,0.72 0.95,0.19 4.38,0.69 5.38,0.71 0.35,0.01 0.58,0.03 0.95,0.05 0.22,0.01 0.21,0.04 0.45,0.05 0.18,0.01 0.37,-0.01 0.55,-0 1.41,0.08 2.57,0.05 4,0.05 0.36,0 0.55,-0.05 0.95,-0.05 0.36,0 0.57,-0.04 0.95,-0.05l3.71 -0.39c0.63,-0.09 1.15,-0.18 1.77,-0.28 2.61,-0.43 4.1,-0.87 6.53,-1.56 2.91,-0.83 5.91,-2.16 8.62,-3.52 0.91,-0.45 1.73,-0.94 2.61,-1.43 1.4,-0.78 3.67,-2.36 4.89,-3.25 0.2,-0.15 0.35,-0.28 0.56,-0.44 0.42,-0.31 2.38,-1.89 2.76,-2.28 0.12,-0.12 0.15,-0.13 0.27,-0.23l1.83 -1.72c0.38,-0.38 0.94,-0.9 1.25,-1.29 0.08,-0.1 0.15,-0.16 0.24,-0.25l1.47 -1.62c1.94,-2.17 3.14,-4.03 4.71,-6.37l1.79 -3.06c0.09,-0.22 0.07,-0.06 0.03,-0.22 0.06,-0.32 0.25,-0.58 0.38,-0.85 0.13,-0.26 0.24,-0.49 0.38,-0.77 0.28,-0.54 0.06,-0.38 -0.52,-0.38l-5.84 0 -0.4 0.5z"/>
    <path class="fil1" d="M32.97 76.21c0,-0.51 0.94,-4.03 1.06,-4.43 0.34,-1.21 1.06,-3.44 1.57,-4.57l0.63 -1.46c0.84,-1.81 2.35,-4.43 3.99,-5.65 0.28,-0.21 0.53,-0.37 0.82,-0.58 0.42,-0.31 1.59,-1.06 2.09,-1.31l3.31 -1.59c2.46,-0.98 4.79,-1.59 7.35,-2.29 0.3,-0.08 0.8,-0.27 1.13,-0.29l0.03 -0.03 0.05 -0.05 -0.05 0c-0.35,-0.14 -0.67,-0.22 -1.04,-0.33 -3.78,-1.06 -4.47,-1.25 -8.23,-2.81l-2.79 -1.41c-0.16,-0.09 -0.27,-0.14 -0.42,-0.23 -0.15,-0.09 -0.29,-0.17 -0.44,-0.25l-1.77 -1.07c-0.01,-0.01 -0.02,-0.01 -0.03,-0.02 -1.13,-0.84 -2.33,-2.51 -3.03,-3.77 -0.96,-1.73 -1.89,-3.86 -2.53,-5.76 -0.33,-0.99 -1.75,-5.59 -1.75,-6.58 -0.13,0.1 -0.3,0.78 -0.36,0.99 -0.09,0.33 -0.2,0.72 -0.32,1.08 -0.11,0.35 -0.21,0.68 -0.3,1.05l-1.58 5.36c-0.32,0.82 -0.62,1.65 -1.02,2.43l-1.84 3c-1.01,1.38 -1.27,1.67 -2.75,2.79 -2,1.5 -5.18,2.71 -7.46,3.57 -0.7,0.26 -1.38,0.44 -2.11,0.69l-4.28 1.37c0.26,0.01 1.8,0.49 2.15,0.59 1.31,0.38 2.94,0.84 4.22,1.27l3.06 1.09c0.3,0.12 0.67,0.27 0.97,0.43 0.78,0.4 0.99,0.44 1.84,0.96 1.26,0.76 2.1,1.36 3.15,2.39 0.15,0.14 0.17,0.2 0.3,0.35 0.8,0.95 0.78,0.95 1.51,1.94 0.21,0.29 0.35,0.55 0.55,0.85 1.02,1.55 1.92,4.05 2.5,5.79 0.35,1.05 0.92,3.22 1.2,4.34 0.06,0.23 0.45,1.97 0.63,2.17z"/>
    <path class="fil2" d="M32.97 76.21c0.07,0.18 -0.06,0.04 0.46,0.19 3.74,1.14 8.53,2.3 11.72,4.21 1.5,0.9 1.48,0.96 2.81,2.03 0.28,0.22 0.4,0.44 0.66,0.69 0.13,0.13 0.2,0.24 0.32,0.38 1.8,2.03 3.52,5.6 4.25,8.24 0.11,0.38 0.21,0.69 0.32,1.08l1.49 5.45c0.76,-3.26 1.17,-5.29 2.48,-8.56 0.99,-2.48 2.22,-5.05 4.13,-6.96 0.25,-0.25 0.41,-0.42 0.71,-0.64 2.06,-1.48 3.78,-2.49 6.22,-3.47 1.13,-0.45 1.95,-0.7 3.08,-1.07 1.08,-0.35 2.17,-0.61 3.22,-0.92 0.37,-0.11 0.75,-0.2 1.1,-0.3l1.09 -0.31c-0.17,-0.12 -0.82,-0.29 -1.01,-0.34l-2.18 -0.62c-0.36,-0.1 -0.7,-0.22 -1.08,-0.32l-3.08 -1.06c-0.34,-0.14 -0.67,-0.26 -0.99,-0.41l-2.82 -1.33c-0.16,-0.1 -0.29,-0.15 -0.46,-0.24 -0.19,-0.09 -0.28,-0.15 -0.45,-0.25 -0.62,-0.34 -1.14,-0.64 -1.74,-1 -0.78,-0.47 -0.97,-0.55 -1.61,-1.19 -0.94,-0.93 -1.73,-2.01 -2.36,-3.18 -1.48,-2.74 -2.25,-4.8 -3.2,-7.88 -0.24,-0.77 -1.02,-3.75 -1.09,-4.43l-0.03 0.03c-0.18,0.41 -0.51,1.62 -0.65,2.11 -1.54,5.34 -1.74,7.51 -5.01,12.17 -1.04,1.48 -2.59,2.55 -4.16,3.43 -1.16,0.65 -3.39,1.69 -4.75,2.14 -0.35,0.12 -0.71,0.24 -1.03,0.37 -0.95,0.38 -4.09,1.31 -5.25,1.64 -0.38,0.11 -0.71,0.22 -1.09,0.31z"/>
    <path class="fil3" d="M54.94 53.96l0.05 0 0.51 -2.26c0.59,-2.34 1.42,-5.13 2.37,-7.27 0.15,-0.34 0.27,-0.64 0.43,-0.97l0.93 -1.81c0.35,-0.68 1.18,-1.86 1.68,-2.46 0.7,-0.84 1.3,-1.34 2.2,-1.94 3.75,-2.51 5.61,-3.02 9.56,-4.28 0.7,-0.23 1.45,-0.39 2.15,-0.6l1.65 -0.45c0.18,-0.05 0.37,-0.11 0.54,-0.16l-0.2 -0.1c-0.71,-0.25 -3.18,-0.93 -4.06,-1.18l-2.06 -0.68c-0.35,-0.14 -0.7,-0.25 -1.02,-0.38l-1.45 -0.6c-1.52,-0.62 -4.6,-2.29 -5.88,-3.16 -0.32,-0.22 -0.48,-0.38 -0.75,-0.65 -0.23,-0.23 -0.47,-0.43 -0.66,-0.69 -0.62,-0.8 -1.21,-1.59 -1.7,-2.5 -1.69,-3.13 -2.46,-5.4 -3.5,-8.93 -0.16,-0.53 -0.76,-2.95 -0.79,-3.4l-0.34 1.01c-0.52,1.63 -1.03,3.85 -1.52,5.37 -0.78,2.41 -0.94,3.38 -2.43,5.86 -0.33,0.55 -0.7,1.15 -1.08,1.66 -0.11,0.14 -0.18,0.26 -0.29,0.41 -1.07,1.48 -2.55,2.57 -4.15,3.44 -1.22,0.67 -2.44,1.24 -3.77,1.77 -0.32,0.13 -0.64,0.26 -0.97,0.38 -1.84,0.63 -3.32,1.16 -5.24,1.7l-2.17 0.73c0.29,0.01 0.78,0.19 1.07,0.28 3.75,1.06 8.88,2.49 11.95,4.54 0.83,0.55 1.23,0.93 1.97,1.52 0.28,0.22 0.4,0.44 0.66,0.69 1.05,1.03 2.35,3.25 3.02,4.57 0.32,0.63 0.56,1.28 0.84,1.96 0.57,1.42 0.9,2.75 1.32,4.17 0.1,0.35 0.2,0.7 0.29,1.06 0.1,0.41 0.19,0.71 0.29,1.11 0.1,0.4 0.19,0.71 0.29,1.11l0.29 1.13z"/>
    <path class="fil4" d="M16.63 91.39c-0.07,-0.35 -0.13,-0.11 -0.2,-0.4l7.47 0c0.16,0.06 0.11,0.28 0.47,0.35 -0.12,-0.3 -0.96,-0.91 -1.24,-1.16l-2.1 -2c-0.13,-0.13 -0.15,-0.2 -0.27,-0.33 -0.38,-0.41 -0.77,-0.77 -1.15,-1.2 -2.54,-2.88 -5.06,-6.35 -6.75,-9.73 -0.27,-0.54 -0.52,-1.04 -0.78,-1.56l-0.73 -1.62c-2.13,-5.08 -3.24,-9.59 -3.67,-15.15 -0.02,-0.28 -0.05,-0.81 -0.08,-1.06 -0.05,-0.39 0.02,-0.79 -0.02,-1.18 -0.07,-0.61 -0.11,-1.61 -0.01,-2.27l0.31 -4.43c0.47,-4.27 1.56,-8.27 3.13,-12.2 0.11,-0.26 0.31,-0.64 0.33,-0.92 -0.09,0.07 -0.06,0.03 -0.13,0.13 -0.22,0.32 -1.27,3.41 -1.42,3.71l0.2 0c-1.9,0 -3.8,0 -5.69,0l0.17 -0.65c0.02,-0.05 0.04,-0.15 0.05,-0.2l0.92 -2.72c0.05,-0.12 0.08,-0.22 0.14,-0.37 0.14,-0.36 0.85,-2.02 0.86,-2.26 -0.17,0.11 -0.1,0.03 -0.24,0.36 -0.06,0.15 -0.11,0.26 -0.18,0.42 -0.77,1.95 -1.61,4.19 -2.11,6.23 -0.58,2.33 -0.84,3.49 -1.23,5.86 -0.22,1.33 -0.37,2.91 -0.48,4.26l-0.05 1.15c0,0.43 -0.05,0.69 -0.05,1.15 0,1.53 -0.06,3.28 0.09,4.65l0.16 2.19c0.07,1.34 0.76,5.12 1.01,6.18 0.74,3.16 1.13,4.36 2.19,7.29 0.51,1.41 1.96,4.68 2.79,6.1 0.71,1.22 1.16,2.13 1.97,3.37 0.66,1 1.18,1.84 1.92,2.82l3.47 4.27c0.12,0.12 0.19,0.18 0.29,0.31 0.15,0.2 0.42,0.5 0.65,0.6z"/>
    <path class="fil4" d="M101.05 46.6c0,0.38 0.09,0.75 0.15,1.1 0.27,1.63 0.61,4.98 0.6,6.59 -0,0.42 -0,0.83 -0,1.25 0,1.06 -0.13,3.4 -0.26,4.53 -0.16,1.46 -0.37,2.87 -0.63,4.22 -0.61,3.16 -1.62,6.4 -2.82,9.21l-1.35 2.89c-0.08,0.14 -0.13,0.25 -0.2,0.4 -0.15,0.29 -0.79,1.4 -0.83,1.66l0.4 -0.5 5.84 0c0.58,-0 0.8,-0.16 0.52,0.38 -0.14,0.27 -0.25,0.51 -0.38,0.77 -0.13,0.27 -0.33,0.52 -0.38,0.85 0.2,-0.09 0.1,0.01 0.3,-0.4l1.48 -3.06c1.66,-3.55 2.96,-8.15 3.68,-12 0.72,-3.82 0.82,-6.71 0.83,-10.91l-0.35 -4.84 -0.46 -3.13c-0.05,-0.25 -0.06,-0.21 -0.13,-0.27 0,0.5 0.35,2.01 0.35,2.55l-6.1 0c0.08,-0.22 -0,-0.41 -0.06,-0.66 -0.04,-0.18 -0.01,-0.33 -0.1,-0.51l-0.09 -0.13z"/>
    <path class="fil5" d="M59.84 53.44c0,1.66 -0.04,2.11 0.51,3.74 0.81,2.42 2.76,3.95 5.39,3.95 1.42,0 2.41,-0.05 3.63,-0.87 0.56,-0.38 0.86,-0.64 1.28,-1.17 0.45,-0.57 1.13,-1.92 1.14,-2.55 -0.39,-0.01 -1.4,-0.39 -1.8,-0.4 -0.31,1.34 -1.02,2.59 -2.35,3.09 -1.64,0.62 -3.83,0.24 -4.89,-1.24 -0.35,-0.5 -0.59,-0.98 -0.77,-1.68 -0.84,-3.32 0.02,-7.56 4.22,-7.56 0.43,0 1.03,0.11 1.37,0.23 0.38,0.13 0.76,0.33 1.02,0.58 0.98,0.98 0.81,1.14 1.21,1.99 0.43,-0.03 1.37,-0.36 1.8,-0.4 -0.28,-0.58 -0.13,-0.63 -0.68,-1.56 -0.26,-0.43 -0.66,-0.9 -1.03,-1.22 -2.41,-2.04 -7.02,-1.55 -8.97,1.49 -0.6,0.94 -1.06,2.37 -1.06,3.59z"/>
    <path class="fil5" d="M87.46 59.83c-2.18,0 -2.46,-2 -1.34,-2.74 0.49,-0.32 1.43,-0.42 2.16,-0.54 0.4,-0.07 0.77,-0.13 1.13,-0.22l1.1 -0.3c0,1.73 -0.16,2.8 -1.61,3.48 -0.34,0.16 -0.97,0.32 -1.43,0.32zm-3.5 -5.94l1.65 0.2c0.3,-0.63 0.34,-1.43 1.56,-1.69 1.07,-0.23 2.97,-0.17 3.26,1.17 0.08,0.38 0.08,0.67 0.08,1.12 -0.19,0.02 -0.35,0.1 -0.51,0.14 -2.02,0.55 -5.16,0.16 -6.1,2.39 -0.79,1.88 0.49,3.91 2.86,3.91 1.03,0 1.51,-0.03 2.45,-0.45 0.61,-0.27 1.18,-0.81 1.45,-0.95 0,0.4 0.17,0.93 0.3,1.2l1.75 0c-0.08,-0.36 -0.29,-0.48 -0.4,-1.29 -0.15,-1.12 -0.1,-3.93 -0.1,-5.15 0,-1.29 -0.09,-2.08 -0.76,-2.73 -0.84,-0.82 -2.22,-0.86 -3.43,-0.86 -1.06,0 -2.07,0.34 -2.73,0.77 -0.72,0.48 -1.1,1.27 -1.32,2.23z"/>
    <path class="fil5" d="M77.77 59.78c-0.47,0 -0.99,-0.16 -1.32,-0.33 -0.34,-0.18 -0.67,-0.48 -0.88,-0.77 -0.94,-1.31 -0.93,-4.16 -0.01,-5.3 1.89,-2.36 5.93,-0.87 4.89,4.04 -0.22,1.07 -0.9,1.94 -1.96,2.24 -0.16,0.05 -0.56,0.12 -0.73,0.12zm-4.65 -3.79c0,1.53 0.35,2.83 1.34,3.91 0.11,0.11 0.2,0.16 0.33,0.27 0.6,0.54 1.71,0.96 2.58,0.96 1.02,0 1.63,-0.02 2.57,-0.48 1.06,-0.52 1.78,-1.42 2.14,-2.56 0.1,-0.31 0.15,-0.61 0.2,-1 0.04,-0.35 0.03,-0.75 0.07,-1.13 0.06,-0.56 -0.13,-1.58 -0.26,-2.02 -0.54,-1.77 -2.19,-3.04 -4.05,-3.04 -1.73,0 -2.26,0.23 -3.48,1.17 -0.22,0.17 -0.62,0.73 -0.75,0.99 -0.46,0.93 -0.67,1.78 -0.67,2.93z"/>
    <polygon class="fil5" points="94.75,60.93 96.45,60.93 96.45,47.4 94.75,47.4 "/>
   </g>
  </g>
 </g>
</svg>
